<svg width="24" height="24" viewBox="0 0 24 24" fill="none" xmlns="http://www.w3.org/2000/svg">
<path d="M17.9936 14.5878V19.5568C17.9939 19.9744 17.8778 20.3837 17.6584 20.7389C17.4389 21.0942 17.1248 21.3812 16.7513 21.5679L12.1245 23.8831C11.9531 23.968 11.7628 24.0078 11.5718 23.9987C11.3807 23.9896 11.1951 23.9319 11.0325 23.8312C10.8699 23.7304 10.7357 23.5898 10.6426 23.4227C10.5494 23.2556 10.5004 23.0675 10.5002 22.8762V18.0085L16.7405 15.223C17.1681 15.0317 17.5857 14.82 17.9936 14.5878ZM8.77417 7.24725C8.96356 6.82222 9.1731 6.40658 9.4028 6.00031H4.44456C4.0278 6.00109 3.61944 6.11761 3.26502 6.33687C2.91059 6.55613 2.62403 6.86952 2.43727 7.24209L0.118235 11.8736C0.0327151 12.0451 -0.0075787 12.2356 0.00117428 12.427C0.00992727 12.6185 0.0674369 12.8045 0.16825 12.9675C0.269062 13.1305 0.409836 13.265 0.577221 13.3583C0.744607 13.4516 0.933055 13.5006 1.1247 13.5007H5.99011L8.77417 7.24725Z" fill="#D3B9C3"/>
<path d="M23.6728 0.895361C23.6426 0.755104 23.5726 0.626536 23.4712 0.52509C23.3697 0.423644 23.2412 0.353631 23.1009 0.323455C21.5915 0 20.4106 0 19.234 0C15.6919 0 13.1868 1.38711 11.2507 3.46894C10.2224 4.58291 9.38556 5.85946 8.7742 7.2468L5.99015 13.5007L4.93681 14.5541C4.65556 14.8354 4.49756 15.2169 4.49756 15.6147C4.49756 16.0125 4.65556 16.394 4.93681 16.6753L7.32288 19.0618C7.60419 19.3431 7.98569 19.5011 8.38348 19.5011C8.78127 19.5011 9.16277 19.3431 9.44408 19.0618L10.5002 18.0085L16.7406 15.223C18.1283 14.609 19.4049 13.7695 20.5184 12.7385C22.6021 10.7978 23.9963 8.29217 23.9963 4.76557C24.001 3.58613 24.001 2.40482 23.6728 0.895361ZM18.0006 7.87542C17.6298 7.87542 17.2672 7.76545 16.9589 7.55941C16.6505 7.35337 16.4102 7.06052 16.2683 6.71789C16.1264 6.37526 16.0892 5.99824 16.1616 5.63451C16.2339 5.27078 16.4125 4.93666 16.6747 4.67443C16.937 4.41219 17.2711 4.2336 17.6348 4.16125C17.9986 4.0889 18.3756 4.12603 18.7182 4.26796C19.0608 4.40988 19.3537 4.65021 19.5597 4.95857C19.7658 5.26693 19.8757 5.62946 19.8757 6.00032C19.8757 6.49763 19.6782 6.97457 19.3265 7.32622C18.9749 7.67787 18.4979 7.87542 18.0006 7.87542Z" fill="#E6007A"/>
</svg>
