<svg width="21" height="24" viewBox="0 0 21 24" fill="none" xmlns="http://www.w3.org/2000/svg">
<g clip-path="url(#clip0)">
<path d="M1.21264 5.83213C1.15557 5.79623 1.10849 5.74651 1.07576 5.68756C1.04304 5.62861 1.02574 5.56235 1.02546 5.49493C1.02517 5.42751 1.04193 5.36111 1.07416 5.3019C1.10639 5.24268 1.15305 5.19256 1.20982 5.15619L8.99107 0.427441C9.44565 0.149276 9.96822 0.0020752 10.5012 0.0020752C11.0341 0.0020752 11.5567 0.149276 12.0112 0.427441L19.7901 5.15619C19.8474 5.19241 19.8946 5.24258 19.9272 5.30201C19.9598 5.36145 19.9768 5.42819 19.9766 5.49598C19.9764 5.56377 19.9589 5.63039 19.9259 5.6896C19.8929 5.74881 19.8454 5.79865 19.7878 5.83447L10.5 11.3695L1.21264 5.83213Z" fill="#D3B9C3"/>
<path d="M0 7.58574V16.8529C0 17.9671 0.567656 18.997 1.49016 19.5576L8.625 23.8926C9.12516 24.1964 9.75234 23.8204 9.75234 23.2157V12.7246L0.5625 7.2459C0.31125 7.0973 0 7.28574 0 7.58574ZM20.4375 7.2459L11.25 12.7246V23.2162C11.25 23.8204 11.8777 24.1968 12.3773 23.8926L19.5098 19.5576C20.4323 18.9951 21 17.9667 21 16.8529V7.58574C21 7.28527 20.6887 7.0973 20.4375 7.2459Z" fill="#E6007A"/>
</g>
<defs>
<clipPath id="clip0">
<rect width="21" height="24" fill="white"/>
</clipPath>
</defs>
</svg>
