<svg width="16" height="14" viewBox="0 0 16 14" fill="none" xmlns="http://www.w3.org/2000/svg">
<path d="M4.66666 0.75V3.25C4.66666 3.66422 4.33088 4 3.91666 4H0.75C0.335781 4 0 3.66422 0 3.25V0.75C0 0.335781 0.335781 0 0.75 0H3.91666C4.33088 0 4.66666 0.335781 4.66666 0.75ZM10.3333 8.25V5.75C10.3333 5.33578 9.99756 5 9.58334 5H6.41666C6.00244 5 5.66666 5.33578 5.66666 5.75V8.25C5.66666 8.66422 6.00244 9 6.41666 9H9.58331C9.99756 9 10.3333 8.66422 10.3333 8.25ZM11.3333 0.75V3.25C11.3333 3.66422 11.6691 4 12.0833 4H15.25C15.6642 4 16 3.66422 16 3.25V0.75C16 0.335781 15.6642 0 15.25 0H12.0833C11.6691 0 11.3333 0.335781 11.3333 0.75ZM10.3333 3.25V0.75C10.3333 0.335781 9.99756 0 9.58334 0H6.41666C6.00244 0 5.66666 0.335781 5.66666 0.75V3.25C5.66666 3.66422 6.00244 4 6.41666 4H9.58331C9.99756 4 10.3333 3.66422 10.3333 3.25ZM3.91666 5H0.75C0.335781 5 0 5.33578 0 5.75V8.25C0 8.66422 0.335781 9 0.75 9H3.91666C4.33088 9 4.66666 8.66422 4.66666 8.25V5.75C4.66666 5.33578 4.33088 5 3.91666 5ZM0 10.75V13.25C0 13.6642 0.335781 14 0.75 14H3.91666C4.33088 14 4.66666 13.6642 4.66666 13.25V10.75C4.66666 10.3358 4.33088 10 3.91666 10H0.75C0.335781 10 0 10.3358 0 10.75ZM12.0833 9H15.25C15.6642 9 16 8.66422 16 8.25V5.75C16 5.33578 15.6642 5 15.25 5H12.0833C11.6691 5 11.3333 5.33578 11.3333 5.75V8.25C11.3333 8.66422 11.6691 9 12.0833 9ZM12.0833 14H15.25C15.6642 14 16 13.6642 16 13.25V10.75C16 10.3358 15.6642 10 15.25 10H12.0833C11.6691 10 11.3333 10.3358 11.3333 10.75V13.25C11.3333 13.6642 11.6691 14 12.0833 14ZM5.66666 10.75V13.25C5.66666 13.6642 6.00244 14 6.41666 14H9.58331C9.99753 14 10.3333 13.6642 10.3333 13.25V10.75C10.3333 10.3358 9.99753 10 9.58331 10H6.41666C6.00244 10 5.66666 10.3358 5.66666 10.75Z" fill="#670E35"/>
</svg>
