<svg width="24" height="18" viewBox="0 0 24 18" fill="none" xmlns="http://www.w3.org/2000/svg">
<path d="M3.35156 3.67031C3.37968 3.39375 3.27187 3.11719 3.06562 2.92969L0.951556 0.379687V0H7.52343L12.6047 11.1422L17.0719 0H23.3391V0.379687L21.5297 2.11406C21.375 2.23125 21.2953 2.42812 21.3281 2.62031V15.3703C21.2953 15.5625 21.375 15.7594 21.5297 15.8766L23.2969 17.6109V17.9906H14.4047V17.6109L16.2375 15.8344C16.4156 15.6562 16.4156 15.6 16.4156 15.3281V5.025L11.3203 17.9578H10.6312L4.70624 5.025V13.6922C4.65468 14.0578 4.77656 14.4234 5.03437 14.6859L7.41562 17.5734V17.9531H0.665619V17.5781L3.04687 14.6859C3.29999 14.4234 3.41718 14.0531 3.35156 13.6922V3.67031Z" fill="#F7F3F7"/>
</svg>
