<svg width="24" height="24" viewBox="0 0 24 24" fill="none" xmlns="http://www.w3.org/2000/svg">
<path d="M20.76 9.04375C20.0569 9.04375 19.4381 9.33438 18.9835 9.78906C17.31 8.63125 15.0553 7.88594 12.5569 7.80625L13.8553 1.95625L17.9897 2.88437C17.9897 3.89687 18.8147 4.72188 19.8272 4.72188C20.8585 4.72188 21.6881 3.87344 21.6881 2.86094C21.6881 1.84844 20.8631 1 19.8272 1C19.1053 1 18.4819 1.43594 18.1725 2.03125L13.6069 1.01875C13.3772 0.957812 13.1522 1.12188 13.0913 1.35156L11.6663 7.80156C9.18659 7.90469 6.95534 8.65 5.27721 9.80781C4.82252 9.33438 4.18034 9.04375 3.47721 9.04375C0.870961 9.04375 0.0178362 12.5406 2.40377 13.7359C2.3194 14.1063 2.2819 14.5 2.2819 14.8937C2.2819 18.8219 6.7069 22.0047 12.1397 22.0047C17.596 22.0047 22.021 18.8219 22.021 14.8937C22.021 14.5 21.9788 14.0875 21.8756 13.7172C24.2147 12.5172 23.3522 9.04375 20.76 9.04375ZM6.18659 13.9844C6.18659 12.9531 7.01159 12.1234 8.04752 12.1234C9.06002 12.1234 9.88502 12.9484 9.88502 13.9844C9.88502 14.9969 9.06002 15.8219 8.04752 15.8219C7.01627 15.8266 6.18659 14.9969 6.18659 13.9844ZM16.2319 18.3672C14.5256 20.0734 9.71159 20.0734 8.00534 18.3672C7.81784 18.2031 7.81784 17.9125 8.00534 17.725C8.1694 17.5609 8.46002 17.5609 8.62409 17.725C9.92721 19.0609 14.2491 19.0844 15.6085 17.725C15.7725 17.5609 16.0631 17.5609 16.2272 17.725C16.4194 17.9125 16.4194 18.2031 16.2319 18.3672ZM16.1944 15.8266C15.1819 15.8266 14.3569 15.0016 14.3569 13.9891C14.3569 12.9578 15.1819 12.1281 16.1944 12.1281C17.2256 12.1281 18.0553 12.9531 18.0553 13.9891C18.0506 14.9969 17.2256 15.8266 16.1944 15.8266Z" fill="#F7F3F7"/>
</svg>
