<svg width="24" height="24" viewBox="0 0 24 24" fill="none" xmlns="http://www.w3.org/2000/svg">
<path d="M21.533 7.11169C21.5482 7.32488 21.5482 7.53811 21.5482 7.7513C21.5482 14.2538 16.599 21.7462 7.5533 21.7462C4.76648 21.7462 2.17767 20.9391 0 19.5381C0.395953 19.5838 0.776625 19.599 1.18781 19.599C3.48727 19.599 5.60405 18.8224 7.29441 17.4975C5.13197 17.4518 3.31978 16.0356 2.69541 14.0863C3 14.132 3.30455 14.1624 3.62437 14.1624C4.06598 14.1624 4.50764 14.1015 4.91878 13.995C2.66498 13.5381 0.974578 11.5584 0.974578 9.16753V9.10664C1.62937 9.47213 2.39086 9.70055 3.19791 9.73097C1.87303 8.8477 1.00505 7.34011 1.00505 5.63452C1.00505 4.72083 1.24866 3.88327 1.67508 3.1523C4.09641 6.13706 7.73602 8.08627 11.8172 8.2995C11.7411 7.93402 11.6954 7.55335 11.6954 7.17263C11.6954 4.46194 13.8883 2.25385 16.6141 2.25385C18.0304 2.25385 19.3095 2.84775 20.208 3.80714C21.3197 3.59395 22.3857 3.18277 23.3299 2.61933C22.9643 3.76149 22.1877 4.72088 21.1674 5.32997C22.1573 5.22342 23.1167 4.94925 23.9999 4.56858C23.33 5.54316 22.4924 6.41114 21.533 7.11169Z" fill="#F7F3F7"/>
</svg>
