<?xml version="1.0" standalone="no"?>
<!DOCTYPE svg PUBLIC "-//W3C//DTD SVG 20010904//EN"
 "http://www.w3.org/TR/2001/REC-SVG-20010904/DTD/svg10.dtd">
<svg version="1.0" xmlns="http://www.w3.org/2000/svg"
 width="613.000000pt" height="613.000000pt" viewBox="0 0 613.000000 613.000000"
 preserveAspectRatio="xMidYMid meet">
<metadata>
Created by potrace 1.11, written by Peter Selinger 2001-2013
</metadata>
<g transform="translate(0.000000,613.000000) scale(0.100000,-0.100000)"
fill="#000000" stroke="none">
<path d="M467 5733 c-23 -23 2 -57 147 -202 158 -158 172 -166 196 -121 11 20
-1 35 -141 176 -145 145 -179 171 -202 147z"/>
<path d="M5262 5728 c-7 -7 -12 -19 -12 -28 0 -8 70 -85 154 -169 148 -148
156 -154 180 -143 15 6 26 20 26 29 0 22 -299 323 -321 323 -8 0 -20 -5 -27
-12z"/>
<path d="M3837 5723 c-26 -25 12 -67 451 -506 305 -305 464 -457 478 -457 24
0 44 18 44 39 0 9 -206 221 -457 473 -369 369 -463 458 -484 458 -14 0 -29 -3
-32 -7z"/>
<path d="M2362 5265 c-708 -108 -1281 -641 -1436 -1336 -127 -568 35 -1154
434 -1573 120 -126 306 -271 413 -322 27 -13 47 -36 80 -93 109 -187 314 -413
486 -535 588 -419 1361 -435 1966 -42 189 123 372 306 499 499 l42 66 360
-360 c256 -256 365 -359 381 -359 20 0 43 25 43 47 0 4 -167 174 -370 378
l-371 371 39 84 c270 585 190 1276 -207 1787 -128 164 -325 338 -496 436 -63
36 -75 48 -110 110 -120 211 -327 429 -545 574 -167 112 -398 207 -615 253
-131 28 -453 36 -593 15z m-97 -775 c185 -26 354 -175 401 -354 19 -69 18
-200 -2 -267 -46 -157 -176 -287 -333 -333 -67 -20 -198 -21 -267 -2 -229 61
-391 307 -355 538 21 126 64 211 149 290 88 82 188 125 322 136 8 1 47 -3 85
-8z"/>
<path d="M452 2858 c-7 -7 -12 -19 -12 -28 0 -20 300 -320 321 -320 19 0 39
20 39 40 0 20 -300 320 -321 320 -8 0 -20 -5 -27 -12z"/>
<path d="M967 2343 c-26 -26 25 -80 861 -916 732 -732 873 -868 893 -865 16 2
25 11 27 27 3 20 -133 161 -865 893 -836 836 -890 887 -916 861z"/>
<path d="M452 1408 c-7 -7 -12 -19 -12 -28 0 -8 174 -189 388 -403 276 -276
393 -387 409 -387 20 0 43 25 43 47 0 4 -174 182 -387 395 -260 261 -394 388
-408 388 -12 0 -26 -5 -33 -12z"/>
<path d="M5268 939 c-10 -5 -18 -18 -18 -27 0 -21 299 -322 321 -322 19 0 39
20 39 40 0 17 -299 320 -315 320 -6 0 -18 -5 -27 -11z"/>
</g>
</svg>
